#!OML:ASF F:\VICON\USERDATA\INSTALL\rory3\rory3.ASF
:FULLY-SPECIFIED
:DEGREES
555
root -0.647456 18.0198 -1.17044 -0.785024 -65.6539 0.366638
lowerback 5.8792 -0.0150143 -2.19937
upperback -7.32987 -0.674035 -2.82588
thorax -11.1831 -0.341852 -1.69757
lowerneck -24.5184 -9.61541 -14.1215
upperneck -4.33789 -9.69167 13.6344
head 3.81971 -4.09148 5.5399
rclavicle 1.45113e-014 1.59028e-015
rhumerus 90.9708 -30.7757 -41.884
rradius 29.409
rwrist 20.0187
rhand -27.919 -3.68819
rfingers 7.12502
rthumb -1.30769 -33.6639
lclavicle 1.45113e-014 1.59028e-015
lhumerus 61.9331 6.54284 -7.14584
lradius 89.3087
lwrist -6.75389
lhand -31.1835 16.3272
lfingers 7.12502
lthumb -4.46031 46.2602
rfemur -4.12683 2.9727 23.5542
rtibia 35.5857
rfoot -19.8776 -8.11776
rtoes 12.8094
lfemur -13.7167 7.08709 -14.567
ltibia 36.7301
lfoot -1.14729 -18.5552
ltoes -9.7244
556
root -0.643282 18.027 -1.18741 -0.768876 -65.5874 0.424068
lowerback 5.92381 -0.0424793 -2.32409
upperback -7.2629 -0.760013 -3.14473
thorax -11.1424 -0.391356 -1.9578
lowerneck -24.4246 -9.60607 -13.9475
upperneck -4.46279 -9.73744 13.6572
head 3.76948 -4.12045 5.51701
rclavicle 3.63776e-014 4.6118e-014
rhumerus 90.669 -30.8008 -41.8392
rradius 29.2528
rwrist 19.5041
rhand -27.1529 -3.53898
rfingers 7.12502
rthumb -0.567731 -33.518
lclavicle 3.63776e-014 4.6118e-014
lhumerus 61.4731 6.60079 -7.51496
lradius 90.2715
lwrist -6.80882
lhand -31.0657 16.5106
lfingers 7.12502
lthumb -4.34657 46.446
rfemur -4.18061 3.16933 23.7816
rtibia 35.6164
rfoot -20.0575 -8.58379
rtoes 13.9611
lfemur -14.0323 7.4764 -14.222
ltibia 36.9791
lfoot -0.125867 -19.1659
ltoes -9.14192
557
root -0.637782 18.026 -1.20373 -0.462674 -65.5534 0.0537035
lowerback 6.0841 -0.0601266 -2.22802
upperback -7.18636 -0.810061 -3.45144
thorax -11.1631 -0.440297 -2.33534
lowerneck -24.2859 -9.62424 -13.8279
upperneck -4.55543 -9.8162 13.7645
head 3.73669 -4.16172 5.52571
rclavicle 4.6118e-014 4.77083e-015
rhumerus 90.3035 -30.7895 -41.8063
rradius 29.1573
rwrist 18.7884
rhand -26.0847 -3.16038
rfingers 7.12502
rthumb 0.463956 -33.1396
lclavicle 4.6118e-014 4.77083e-015
lhumerus 60.9591 6.63122 -7.81249
lradius 91.2721
lwrist -6.86914
lhand -30.9689 16.3304
lfingers 7.12502
lthumb -4.2531 46.2677
rfemur -4.07508 3.30622 24.1331
rtibia 35.5588
rfoot -21.0828 -9.2316
rtoes 13.2279
lfemur -14.2444 7.78588 -13.6147
ltibia 37.2821
lfoot 0.646452 -19.5341
ltoes -9.57736
558
root -0.633704 18.0177 -1.21816 -0.705647 -65.503 0.284495
lowerback 6.17984 -0.135027 -2.4401
upperback -7.0928 -0.963502 -3.69808
thorax -11.1245 -0.510949 -2.45783
lowerneck -24.4205 -9.54778 -13.681
upperneck -4.36708 -9.74735 13.6858
head 3.79244 -4.12729 5.48125
rclavicle -9.14409e-015 -3.33958e-014
rhumerus 90.1162 -30.5873 -41.8637
rradius 29.1751
rwrist 17.839
rhand -24.8164 -2.53584
rfingers 7.12502
rthumb 1.68888 -32.5089
lclavicle -9.14409e-015 -3.33958e-014
lhumerus 60.2166 6.6688 -7.98402
lradius 92.1149
lwrist -6.89748
lhand -30.9597 16.2558
lfingers 7.12502
lthumb -4.24418 46.1933
rfemur -3.98542 3.33547 24.1211
rtibia 35.4204
rfoot -21.7994 -9.60119
rtoes 12.0698
lfemur -14.4766 7.86754 -13.2646
ltibia 37.6374
lfoot 1.18818 -19.5752
ltoes -11.8653
559
root -0.624881 17.9953 -1.23136 -0.347738 -65.4232 -0.150003
lowerback 6.31359 -0.316601 -2.44362
upperback -7.02278 -1.21089 -3.70015
thorax -11.1334 -0.628992 -2.41814
lowerneck -24.444 -9.52057 -14.097
upperneck -4.27635 -9.61404 13.89
head 3.8398 -4.04674 5.6298
rclavicle -3.61788e-014 2.38542e-014
rhumerus 90.1998 -30.1539 -41.9157
rradius 29.2254
rwrist 16.7463
rhand -23.4161 -1.89998
rfingers 7.12502
rthumb 3.04129 -31.858
lclavicle -3.61788e-014 2.38542e-014
lhumerus 59.1553 6.65196 -8.15216
lradius 92.8227
lwrist -6.8234
lhand -30.7064 16.1317
lfingers 7.12502
lthumb -3.99958 46.0739
rfemur -3.84109 3.34528 24.3563
rtibia 35.1572
rfoot -21.6255 -9.53177
rtoes 11.3895
lfemur -14.7982 8.01961 -12.5544
ltibia 38.0941
lfoot 1.55983 -19.7371
ltoes -16.3939
560
root -0.616891 17.9687 -1.24108 0.103436 -65.4189 -0.71929
lowerback 6.39191 -0.382447 -2.27453
upperback -6.85818 -1.2874 -3.84183
thorax -11.0048 -0.685445 -2.65142
lowerneck -24.4547 -9.58102 -14.258
upperneck -4.35695 -9.65915 14.0811
head 3.84375 -4.05993 5.71196
rclavicle -5.80451e-014 -4.77083e-015
rhumerus 90.0046 -30.0999 -41.844
rradius 29.2987
rwrist 15.6926
rhand -22.2714 -1.8688
rfingers 7.12502
rthumb 4.14666 -31.8082
lclavicle -5.80451e-014 -4.77083e-015
lhumerus 58.4496 6.77922 -8.15101
lradius 93.4011
lwrist -6.70223
lhand -30.5499 15.8475
lfingers 7.12502
lthumb -3.84847 45.7925
rfemur -3.58024 3.3357 24.5935
rtibia 34.8143
rfoot -21.1722 -9.31802
rtoes 10.0803
lfemur -15.1139 8.39683 -11.7373
ltibia 38.5871
lfoot 1.79299 -20.2557
ltoes -21.5968
561
root -0.610569 17.9423 -1.24351 0.504559 -65.4706 -1.26151
lowerback 6.46311 -0.326711 -1.99339
upperback -6.67389 -1.20038 -4.12
thorax -10.8516 -0.678846 -3.12142
lowerneck -24.4132 -9.62203 -14.0297
upperneck -4.4319 -9.77548 14.0171
head 3.81574 -4.12563 5.64052
rclavicle 4.05521e-014 -4.77083e-014
rhumerus 89.4829 -30.2914 -41.6105
rradius 29.3653
rwrist 14.973
rhand -21.3294 -1.60962
rfingers 7.12502
rthumb 5.05633 -31.5293
lclavicle 4.05521e-014 -4.77083e-014
lhumerus 58.11 6.93554 -8.01644
lradius 93.9358
lwrist -6.56613
lhand -30.5563 15.7774
lfingers 7.12502
lthumb -3.85464 45.7223
rfemur -3.22956 3.34633 24.7381
rtibia 34.3731
rfoot -21.0158 -9.1646
rtoes 8.13006
lfemur -15.4068 8.68059 -10.9569
ltibia 39.1174
lfoot 1.60693 -20.9661
ltoes -27.1188
562
root -0.60598 17.9191 -1.24751 0.773894 -65.5302 -1.57895
lowerback 6.45927 -0.343164 -1.94872
upperback -6.50634 -1.22634 -4.30522
thorax -10.6692 -0.702751 -3.3394
lowerneck -24.4717 -9.57624 -13.7514
upperneck -4.47461 -9.77654 13.8649
head 3.78669 -4.13705 5.54674
rclavicle -4.41302e-014 7.95139e-015
rhumerus 89.2859 -30.2516 -41.6907
rradius 29.4609
rwrist 14.7072
rhand -20.6727 -1.10687
rfingers 7.12502
rthumb 5.69033 -31.0105
lclavicle -4.41302e-014 7.95139e-015
lhumerus 57.636 7.13847 -7.97814
lradius 94.2917
lwrist -6.25973
lhand -30.3801 15.4586
lfingers 7.12502
lthumb -3.68448 45.4065
rfemur -2.90949 3.3958 24.7155
rtibia 33.8592
rfoot -20.9451 -8.60671
rtoes 7.27381
lfemur -15.8124 8.89112 -10.2755
ltibia 39.6394
lfoot 1.62304 -21.7633
ltoes -31.1176
563
root -0.602602 17.9024 -1.25017 1.26473 -65.5755 -2.15454
lowerback 6.47313 -0.347412 -1.90733
upperback -6.39217 -1.21584 -4.28193
thorax -10.5485 -0.697032 -3.33637
lowerneck -24.4473 -9.59208 -13.95
upperneck -4.39604 -9.74867 13.8578
head 3.81143 -4.12119 5.57889
rclavicle -5.12864e-014 4.92986e-014
rhumerus 89.049 -30.1116 -41.3387
rradius 29.5457
rwrist 14.544
rhand -20.1553 -0.625629
rfingers 7.12502
rthumb 6.1899 -30.5152
lclavicle -5.12864e-014 4.92986e-014
lhumerus 57.0587 7.19553 -7.60665
lradius 94.7394
lwrist -5.8799
lhand -30.0602 15.8372
lfingers 7.12502
lthumb -3.37564 45.7902
rfemur -2.52543 3.38445 24.7545
rtibia 33.2771
rfoot -20.6121 -7.6276
rtoes 6.84908
lfemur -16.2092 9.08171 -9.46768
ltibia 40.1282
lfoot 1.3001 -22.8702
ltoes -34.0509
